<mxfile host="65bd71144e">
    <diagram id="TgQlGplQxF1jkqQ7AZYU" name="Page-1">
        <mxGraphModel dx="1045" dy="757" grid="1" gridSize="10" guides="1" tooltips="1" connect="1" arrows="1" fold="1" page="1" pageScale="1" pageWidth="850" pageHeight="1100" math="0" shadow="0">
            <root>
                <mxCell id="0"/>
                <mxCell id="1" parent="0"/>
                <mxCell id="2" value="http://ics2o.mths.ca" style="swimlane;whiteSpace=wrap;html=1;" vertex="1" parent="1">
                    <mxGeometry x="30" y="70" width="760" height="480" as="geometry"/>
                </mxCell>
                <mxCell id="3" value="&lt;h1&gt;Select your style of nacho&lt;/h1&gt;" style="text;html=1;align=center;verticalAlign=middle;resizable=0;points=[];autosize=1;strokeColor=none;fillColor=none;fontSize=15;" vertex="1" parent="2">
                    <mxGeometry x="20" y="60" width="400" height="90" as="geometry"/>
                </mxCell>
                <mxCell id="4" value="Receipt" style="rounded=1;whiteSpace=wrap;html=1;fontSize=15;" vertex="1" parent="2">
                    <mxGeometry x="60" y="430" width="80" height="30" as="geometry"/>
                </mxCell>
                <mxCell id="5" value="Chicken Nachos 23.99" style="text;html=1;align=center;verticalAlign=middle;resizable=0;points=[];autosize=1;strokeColor=none;fillColor=none;fontSize=15;" vertex="1" parent="2">
                    <mxGeometry x="505" y="170" width="170" height="30" as="geometry"/>
                </mxCell>
                <mxCell id="7" value="" style="ellipse;whiteSpace=wrap;html=1;aspect=fixed;" vertex="1" parent="2">
                    <mxGeometry x="70" y="250" width="20" height="20" as="geometry"/>
                </mxCell>
                <mxCell id="10" value="Chicken" style="rounded=1;whiteSpace=wrap;html=1;" vertex="1" parent="2">
                    <mxGeometry x="40" y="170" width="140" height="20" as="geometry"/>
                </mxCell>
                <mxCell id="11" value="Sour cream 1.99" style="text;html=1;align=center;verticalAlign=middle;resizable=0;points=[];autosize=1;strokeColor=none;fillColor=none;" vertex="1" parent="2">
                    <mxGeometry x="25" y="205" width="110" height="30" as="geometry"/>
                </mxCell>
                <mxCell id="12" value="" style="ellipse;whiteSpace=wrap;html=1;aspect=fixed;" vertex="1" parent="2">
                    <mxGeometry x="70" y="320" width="20" height="20" as="geometry"/>
                </mxCell>
                <mxCell id="13" value="Guacamole 2.99" style="text;html=1;align=center;verticalAlign=middle;resizable=0;points=[];autosize=1;strokeColor=none;fillColor=none;" vertex="1" parent="2">
                    <mxGeometry x="25" y="280" width="110" height="30" as="geometry"/>
                </mxCell>
                <mxCell id="15" value="" style="ellipse;whiteSpace=wrap;html=1;aspect=fixed;" vertex="1" parent="2">
                    <mxGeometry x="70" y="390" width="20" height="20" as="geometry"/>
                </mxCell>
                <mxCell id="16" value="Guacamole 2.99" style="text;html=1;align=center;verticalAlign=middle;resizable=0;points=[];autosize=1;strokeColor=none;fillColor=none;" vertex="1" parent="2">
                    <mxGeometry x="505" y="205" width="110" height="30" as="geometry"/>
                </mxCell>
                <mxCell id="17" value="Sour cream 1.99" style="text;html=1;align=center;verticalAlign=middle;resizable=0;points=[];autosize=1;strokeColor=none;fillColor=none;" vertex="1" parent="2">
                    <mxGeometry x="505" y="235" width="110" height="30" as="geometry"/>
                </mxCell>
                <mxCell id="18" value="Salsa 0.99" style="text;html=1;align=center;verticalAlign=middle;resizable=0;points=[];autosize=1;strokeColor=none;fillColor=none;" vertex="1" parent="2">
                    <mxGeometry x="505" y="265" width="80" height="30" as="geometry"/>
                </mxCell>
                <mxCell id="19" value="HST = 13%" style="text;html=1;align=center;verticalAlign=middle;resizable=0;points=[];autosize=1;strokeColor=none;fillColor=none;" vertex="1" parent="2">
                    <mxGeometry x="550" y="310" width="80" height="30" as="geometry"/>
                </mxCell>
                <mxCell id="20" value="Total = 33.90" style="text;html=1;align=center;verticalAlign=middle;resizable=0;points=[];autosize=1;strokeColor=none;fillColor=none;" vertex="1" parent="2">
                    <mxGeometry x="550" y="340" width="90" height="30" as="geometry"/>
                </mxCell>
                <mxCell id="14" value="Salsa 0.99" style="text;html=1;align=center;verticalAlign=middle;resizable=0;points=[];autosize=1;strokeColor=none;fillColor=none;" vertex="1" parent="1">
                    <mxGeometry x="70" y="425" width="80" height="30" as="geometry"/>
                </mxCell>
            </root>
        </mxGraphModel>
    </diagram>
</mxfile>